<?xml version="1.0" encoding="UTF-8"?>
<svg version="1.1" xmlns="http://www.w3.org/2000/svg" width="512" height="512">
<path d="M0 0 C13.58342956 9.73866412 25.67893975 23.22443548 29.61328125 39.9140625 C30.44865545 46.58017982 30.21213909 53.29797626 30 60 C30.72590332 59.98428955 31.45180664 59.9685791 32.19970703 59.95239258 C35.50805788 59.88979645 38.81628381 59.85093088 42.125 59.8125 C43.26710938 59.78736328 44.40921875 59.76222656 45.5859375 59.73632812 C53.15681336 59.67030304 57.80080252 60.24720217 63.6875 65.3125 C69.50015198 72.06774419 69.52987389 78.25012494 69.50097656 86.83056641 C69.50000537 88.86375209 69.54165339 90.89314038 69.5859375 92.92578125 C69.59922713 99.63040128 69.55810682 105.00937272 65.49121094 110.53198242 C64 112 64 112 60.734375 113.74609375 C57.80122381 115.69041937 57.80122381 115.69041937 57.46289062 118.46533203 C57.25222861 121.67688484 57.21634045 124.84427321 57.25 128.0625 C57.20368706 141.02240366 56.98488583 154.00741325 48.0234375 164.26171875 C40.13969417 171.7972402 31.61394218 174.59410285 20.8359375 174.609375 C19.91785309 174.62591125 18.99976868 174.64244751 18.05386353 174.65948486 C15.16083811 174.707539 12.26833655 174.7292402 9.375 174.75 C7.39710966 174.77819539 5.41924327 174.80812773 3.44140625 174.83984375 C-1.37262697 174.91651318 -6.18506575 174.95742764 -11 175 C-11.33 184.9 -11.66 194.8 -12 205 C-8.04 205.99 -4.08 206.98 0 208 C35.68884712 219.33195987 75.3348194 237.65300783 94 272 C101.59053215 287.81360865 101.2712382 303.67365905 101.125 320.8125 C101.11494778 322.87304251 101.10582591 324.93358979 101.09765625 326.99414062 C101.07582581 331.99621318 101.04142003 336.99805287 101 342 C101.89234344 341.99111755 102.78468689 341.98223511 103.70407104 341.9730835 C112.14796954 341.8926571 120.59173783 341.83189372 129.03593254 341.79275131 C133.37633593 341.77195065 137.71642061 341.7437722 142.05664062 341.69824219 C146.25177227 341.65451379 150.44659896 341.63080644 154.64194107 341.62049103 C156.23580851 341.61314775 157.82966083 341.59880893 159.42339706 341.57707977 C169.97590897 341.439037 178.22780684 342.29708363 187.3125 348.125 C194.13242021 355.42072859 195.74096682 362.92063514 195.63110352 372.65673828 C195.64183647 374.33677444 195.64183647 374.33677444 195.65278625 376.05075073 C195.66958832 379.72436269 195.65032119 383.39673989 195.62890625 387.0703125 C195.6297356 389.63760478 195.63219749 392.20489701 195.63621521 394.77218628 C195.63906728 400.14013136 195.62496281 405.50762546 195.59692383 410.87548828 C195.56484595 417.06393045 195.56490524 423.25174245 195.5821386 429.44022954 C195.598049 435.41933131 195.5911432 441.39814201 195.57420158 447.37725449 C195.5690294 449.91052613 195.56948982 452.44381591 195.57574654 454.97708511 C195.58121246 458.51913417 195.56077839 462.06012266 195.53344727 465.60205078 C195.54323608 467.1623703 195.54323608 467.1623703 195.55322266 468.75421143 C195.45390615 476.34541995 193.89649156 481.73561774 188.81640625 487.4609375 C187.70072266 488.40839844 187.70072266 488.40839844 186.5625 489.375 C185.82128906 490.02210938 185.08007812 490.66921875 184.31640625 491.3359375 C179.38334016 494.87975901 174.91661285 495.28991998 168.97323895 495.25726891 C168.16620062 495.26077498 167.3591623 495.26428105 166.52766827 495.26789337 C163.81229723 495.2772276 161.09713972 495.27227884 158.38175964 495.26742554 C156.41973915 495.27116078 154.45772015 495.27576179 152.49570352 495.28115618 C147.09527905 495.29341719 141.69491638 495.29312207 136.29448116 495.29076743 C130.47362932 495.29036005 124.65279751 495.30139088 118.83195496 495.31088257 C107.42453716 495.32751045 96.01714003 495.33299292 84.60971113 495.33410732 C75.33929999 495.33505694 66.06889569 495.33916287 56.79848671 495.34550858 C54.13073566 495.34729758 51.46298461 495.34908327 48.79523355 495.35085833 C48.1320363 495.35130043 47.46883905 495.35174252 46.78554491 495.35219802 C28.12895078 495.3645078 9.47235898 495.372399 -9.18423939 495.37151146 C-9.88774904 495.3714803 -10.5912587 495.37144914 -11.31608683 495.37141704 C-14.88182646 495.37125083 -18.44756608 495.37105274 -22.0133057 495.37084763 C-23.07557271 495.37078779 -23.07557271 495.37078779 -24.15929965 495.37072675 C-25.59140844 495.37064587 -27.02351724 495.37056228 -28.45562603 495.37047596 C-50.73777743 495.36925041 -73.01986797 495.38426393 -95.30200195 495.41162109 C-120.3316603 495.44233885 -145.36127866 495.45955378 -170.39095706 495.45769465 C-183.64524065 495.45695332 -196.8994585 495.46255348 -210.15372658 495.48405075 C-221.4379734 495.50223521 -232.72212048 495.50663237 -244.00637559 495.4930319 C-249.76530404 495.48648851 -255.52404096 495.4864346 -261.28295135 495.5037384 C-266.55390936 495.51941337 -271.82452309 495.51666252 -277.09547242 495.49917014 C-279.00326038 495.49608794 -280.91107369 495.49977828 -282.81883178 495.51089029 C-285.41154366 495.52499283 -288.00304484 495.51444011 -290.59571552 495.49777794 C-291.33693861 495.5077143 -292.07816169 495.51765066 -292.84184608 495.52788812 C-299.42277527 495.43843294 -304.54554296 493.17784362 -309.4609375 488.81640625 C-310.40839844 487.70072266 -310.40839844 487.70072266 -311.375 486.5625 C-312.02210938 485.82128906 -312.66921875 485.08007812 -313.3359375 484.31640625 C-316.15940643 480.38608448 -317.24741735 476.87915474 -317.27415466 472.06221008 C-317.28412979 471.09374649 -317.29410492 470.1252829 -317.30438232 469.12747192 C-317.305047 468.07647308 -317.30571167 467.02547424 -317.30639648 465.94262695 C-317.31888176 464.26850487 -317.31888176 464.26850487 -317.33161926 462.56056213 C-317.35571955 458.86976635 -317.36449234 455.17914739 -317.37109375 451.48828125 C-317.3800613 448.91863452 -317.38918317 446.34898831 -317.39845276 443.77934265 C-317.41494629 438.39006937 -317.42267622 433.00086709 -317.42553711 427.61157227 C-317.42916643 421.4022361 -317.45902166 415.19339601 -317.50094169 408.98421127 C-317.5399654 402.99182797 -317.55113262 396.99971727 -317.55226326 391.00719261 C-317.55646004 388.46716819 -317.56887236 385.92714314 -317.58978081 383.38720131 C-317.61675943 379.82581585 -317.61184853 376.26578257 -317.59936523 372.7043457 C-317.61419952 371.66346802 -317.62903381 370.62259033 -317.64431763 369.5501709 C-317.57356391 362.42988041 -316.05361881 356.92395756 -312 351 C-305.71078786 344.84994205 -298.25808775 341.6754406 -289.48350525 341.6267395 C-288.6987532 341.63752533 -287.91400116 341.64831116 -287.10546875 341.65942383 C-286.2557399 341.65898575 -285.40601105 341.65854767 -284.53053284 341.65809631 C-281.74928009 341.66016999 -278.96864616 341.68343321 -276.1875 341.70703125 C-274.24837574 341.71263227 -272.30924722 341.71689998 -270.37011719 341.71989441 C-265.28688669 341.73130332 -260.20391673 341.76073627 -255.12078857 341.79400635 C-249.92561364 341.82479272 -244.73039627 341.83841801 -239.53515625 341.85351562 C-229.35665689 341.88560993 -219.17835018 341.93675817 -209 342 C-209.01332367 341.15127319 -209.01332367 341.15127319 -209.0269165 340.28540039 C-209.11647152 334.31406927 -209.17617464 328.34293345 -209.21972656 322.37109375 C-209.23965232 320.15226473 -209.26680297 317.93348689 -209.30175781 315.71484375 C-209.64614052 293.26919429 -207.06202908 274.69139191 -192 257 C-191.46375 256.30777344 -190.9275 255.61554688 -190.375 254.90234375 C-168.469479 227.96050877 -130.27939374 214.31251526 -98 205 C-97.34 205 -96.68 205 -96 205 C-96 195.1 -96 185.2 -96 175 C-97.32 174.34 -98.64 173.68 -100 173 C-104.62615449 169.34874089 -108.93607822 165.26216187 -113 161 C-114.00160156 159.97326172 -114.00160156 159.97326172 -115.0234375 158.92578125 C-124.86564478 148.49572882 -137 132.02291063 -137 117 C-138.11858398 117.03927612 -138.11858398 117.03927612 -139.25976562 117.0793457 C-142.67295858 117.18395551 -146.08581328 117.24852969 -149.5 117.3125 C-151.25957031 117.3753418 -151.25957031 117.3753418 -153.0546875 117.43945312 C-160.32262715 117.54153093 -165.61354266 117.1815727 -171 112 C-175.50625737 107.4762711 -176.32059771 103.15456783 -176.59375 96.8671875 C-176.58981296 94.88095111 -176.58525513 92.89446048 -176.54199219 90.90869141 C-176.49993276 88.8717435 -176.50095121 86.83809302 -176.5078125 84.80078125 C-176.37700954 71.62892356 -176.37700954 71.62892356 -171.0625 65.91796875 C-170.381875 65.34691406 -169.70125 64.77585937 -169 64.1875 C-168.319375 63.60355469 -167.63875 63.01960938 -166.9375 62.41796875 C-163.57017865 59.95357833 -160.71323257 59.88003739 -156.67578125 59.90234375 C-155.64775391 59.90556641 -154.61972656 59.90878906 -153.56054688 59.91210938 C-151.95276367 59.92467773 -151.95276367 59.92467773 -150.3125 59.9375 C-149.22904297 59.94201172 -148.14558594 59.94652344 -147.02929688 59.95117188 C-144.35280915 59.96296257 -141.67643223 59.97941937 -139 60 C-138.97421875 58.9584375 -138.9484375 57.916875 -138.921875 56.84375 C-138.29389708 39.0447625 -135.09778989 22.55272332 -122.45703125 9.19921875 C-117.39949164 4.67235898 -111.97012067 2.23271957 -105.3125 1.125 C-100.75596177 0.28563769 -98.77548512 -1.84010542 -95.7265625 -5.1953125 C-72.26765731 -29.71570661 -24.22590589 -16.71463694 0 0 Z M29 117 C28.61070312 118.1859375 28.22140625 119.371875 27.8203125 120.59375 C23.17292993 134.22588347 17.01617816 145.76604928 8 157 C8 157.33 8 157.66 8 158 C11.04221065 158.08132642 14.0822238 158.14065374 17.125 158.1875 C17.9809375 158.21263672 18.836875 158.23777344 19.71875 158.26367188 C25.85641208 158.33449105 30.17737898 157.60367557 34.86328125 153.28125 C35.34152344 152.6934375 35.81976563 152.105625 36.3125 151.5 C36.80363281 150.9121875 37.29476563 150.324375 37.80078125 149.71875 C40.30597899 146.12823858 40.11681012 142.81503655 40.09765625 138.58203125 C40.09443359 137.32841797 40.09121094 136.07480469 40.08789062 134.78320312 C40.07951172 133.47287109 40.07113281 132.16253906 40.0625 130.8125 C40.05748317 129.47721519 40.05292059 128.14192859 40.04882812 126.80664062 C40.03702695 123.53771527 40.02056297 120.26888009 40 117 C36.37 117 32.74 117 29 117 Z " fill="#9ED3FD" transform="translate(317,17)"/>
<path d="M0 0 C13.58342956 9.73866412 25.67893975 23.22443548 29.61328125 39.9140625 C30.44865545 46.58017982 30.21213909 53.29797626 30 60 C30.72590332 59.98428955 31.45180664 59.9685791 32.19970703 59.95239258 C35.50805788 59.88979645 38.81628381 59.85093088 42.125 59.8125 C43.26710938 59.78736328 44.40921875 59.76222656 45.5859375 59.73632812 C53.15681336 59.67030304 57.80080252 60.24720217 63.6875 65.3125 C69.50015198 72.06774419 69.52987389 78.25012494 69.50097656 86.83056641 C69.50000537 88.86375209 69.54165339 90.89314038 69.5859375 92.92578125 C69.59922713 99.63040128 69.55810682 105.00937272 65.49121094 110.53198242 C64 112 64 112 60.734375 113.74609375 C57.80122381 115.69041937 57.80122381 115.69041937 57.46289062 118.46533203 C57.25222861 121.67688484 57.21634045 124.84427321 57.25 128.0625 C57.20368706 141.02240366 56.98488583 154.00741325 48.0234375 164.26171875 C40.13969417 171.7972402 31.61394218 174.59410285 20.8359375 174.609375 C19.91785309 174.62591125 18.99976868 174.64244751 18.05386353 174.65948486 C15.16083811 174.707539 12.26833655 174.7292402 9.375 174.75 C7.39710966 174.77819539 5.41924327 174.80812773 3.44140625 174.83984375 C-1.37262697 174.91651318 -6.18506575 174.95742764 -11 175 C-11.33 184.9 -11.66 194.8 -12 205 C-8.04 205.99 -4.08 206.98 0 208 C35.68884712 219.33195987 75.3348194 237.65300783 94 272 C101.12212877 286.83776826 101.3071483 301.60532702 101.20581055 317.72460938 C101.18728672 320.785239 101.18530319 323.84556957 101.18554688 326.90625 C101.18064023 328.84896097 101.17481568 330.7916699 101.16796875 332.734375 C101.16685593 333.6508783 101.1657431 334.56738159 101.16459656 335.51165771 C101.11613449 341.88386551 101.11613449 341.88386551 100 343 C98.35274836 343.09716679 96.70129947 343.12371562 95.05118465 343.12304783 C93.97282437 343.12503888 92.89446409 343.12702993 91.78342623 343.12908131 C90.58403604 343.12616847 89.38464586 343.12325563 88.14891052 343.12025452 C86.88623842 343.12110894 85.62356631 343.12196337 84.32263142 343.12284368 C80.80179314 343.12509102 77.28098499 343.12106413 73.76015055 343.11606562 C69.96940332 343.1117647 66.17865792 343.11320729 62.38790894 343.1139679 C55.81484509 343.11449336 49.24179114 343.11134423 42.66872978 343.10573006 C33.16507644 343.09761808 23.6614279 343.09500015 14.15777148 343.09374207 C-1.25964921 343.09155107 -16.67706461 343.0848897 -32.09448242 343.07543945 C-47.0749509 343.06626657 -62.05541795 343.05918513 -77.03588867 343.05493164 C-78.41996704 343.05453756 -78.41996704 343.05453756 -79.83200658 343.05413551 C-84.46081396 343.05283051 -89.08962134 343.05156679 -93.71842873 343.05032361 C-132.14562285 343.03994951 -170.57281108 343.0223299 -209 343 C-209.10267446 336.31475169 -209.17199085 329.62971166 -209.21972656 322.94384766 C-209.23965772 320.67651777 -209.26681268 318.40923803 -209.30175781 316.14208984 C-209.64124943 293.5259568 -207.18636444 274.83743237 -192 257 C-191.46375 256.30777344 -190.9275 255.61554688 -190.375 254.90234375 C-168.469479 227.96050877 -130.27939374 214.31251526 -98 205 C-97.34 205 -96.68 205 -96 205 C-96 195.1 -96 185.2 -96 175 C-97.98 174.01 -97.98 174.01 -100 173 C-104.62615449 169.34874089 -108.93607822 165.26216187 -113 161 C-113.66773438 160.31550781 -114.33546875 159.63101563 -115.0234375 158.92578125 C-124.86564478 148.49572882 -137 132.02291063 -137 117 C-138.11858398 117.03927612 -138.11858398 117.03927612 -139.25976562 117.0793457 C-142.67295858 117.18395551 -146.08581328 117.24852969 -149.5 117.3125 C-151.25957031 117.3753418 -151.25957031 117.3753418 -153.0546875 117.43945312 C-160.32262715 117.54153093 -165.61354266 117.1815727 -171 112 C-175.50625737 107.4762711 -176.32059771 103.15456783 -176.59375 96.8671875 C-176.58981296 94.88095111 -176.58525513 92.89446048 -176.54199219 90.90869141 C-176.49993276 88.8717435 -176.50095121 86.83809302 -176.5078125 84.80078125 C-176.37700954 71.62892356 -176.37700954 71.62892356 -171.0625 65.91796875 C-170.381875 65.34691406 -169.70125 64.77585937 -169 64.1875 C-168.319375 63.60355469 -167.63875 63.01960938 -166.9375 62.41796875 C-163.57017865 59.95357833 -160.71323257 59.88003739 -156.67578125 59.90234375 C-155.64775391 59.90556641 -154.61972656 59.90878906 -153.56054688 59.91210938 C-151.95276367 59.92467773 -151.95276367 59.92467773 -150.3125 59.9375 C-149.22904297 59.94201172 -148.14558594 59.94652344 -147.02929688 59.95117188 C-144.35280915 59.96296257 -141.67643223 59.97941937 -139 60 C-138.97421875 58.9584375 -138.9484375 57.916875 -138.921875 56.84375 C-138.29389708 39.0447625 -135.09778989 22.55272332 -122.45703125 9.19921875 C-117.39949164 4.67235898 -111.97012067 2.23271957 -105.3125 1.125 C-100.75596177 0.28563769 -98.77548512 -1.84010542 -95.7265625 -5.1953125 C-72.26765731 -29.71570661 -24.22590589 -16.71463694 0 0 Z M29 117 C28.61070312 118.1859375 28.22140625 119.371875 27.8203125 120.59375 C23.17292993 134.22588347 17.01617816 145.76604928 8 157 C8 157.33 8 157.66 8 158 C11.04221065 158.08132642 14.0822238 158.14065374 17.125 158.1875 C17.9809375 158.21263672 18.836875 158.23777344 19.71875 158.26367188 C25.85641208 158.33449105 30.17737898 157.60367557 34.86328125 153.28125 C35.34152344 152.6934375 35.81976563 152.105625 36.3125 151.5 C36.80363281 150.9121875 37.29476562 150.324375 37.80078125 149.71875 C40.30597899 146.12823858 40.11681012 142.81503655 40.09765625 138.58203125 C40.09443359 137.32841797 40.09121094 136.07480469 40.08789062 134.78320312 C40.07951172 133.47287109 40.07113281 132.16253906 40.0625 130.8125 C40.05748317 129.47721519 40.05292059 128.14192859 40.04882812 126.80664062 C40.03702695 123.53771527 40.02056297 120.26888009 40 117 C36.37 117 32.74 117 29 117 Z " fill="#FEBB84" transform="translate(317,17)"/>
<path d="M0 0 C0.734375 1.40755208 1.46875 2.81510417 2.203125 4.22265625 C2.92387207 5.60384644 2.92387207 5.60384644 3.65917969 7.01293945 C4.72807206 9.06197791 5.79642324 11.11129876 6.86425781 13.16088867 C9.71987099 18.64000237 12.58461492 24.11396432 15.46875 29.578125 C16.29391113 31.14614868 16.29391113 31.14614868 17.13574219 32.74584961 C18.20082825 34.76922317 19.26912166 36.79091208 20.34082031 38.81079102 C20.82131836 39.72530029 21.30181641 40.63980957 21.796875 41.58203125 C22.22323242 42.38874268 22.64958984 43.1954541 23.08886719 44.02661133 C24 46 24 46 24 48 C24.60328125 47.79503906 25.2065625 47.59007812 25.828125 47.37890625 C27.02695313 46.97478516 27.02695313 46.97478516 28.25 46.5625 C29.03890625 46.29566406 29.8278125 46.02882813 30.640625 45.75390625 C32.74910774 45.08016922 34.8510768 44.52533639 37 44 C38.87193222 47.68871751 40.72233357 51.38740638 42.55419922 55.09619141 C43.17903248 56.35392238 43.80947483 57.60888414 44.44580078 58.86083984 C45.3645288 60.67089268 46.26198447 62.49026077 47.15625 64.3125 C47.70087891 65.40175781 48.24550781 66.49101562 48.80664062 67.61328125 C51.35421958 74.84323527 49.67575297 81.90360619 48.28515625 89.23046875 C48.10995956 90.18391678 47.93476288 91.13736481 47.7542572 92.1197052 C47.19697531 95.1435761 46.6298623 98.16550606 46.0625 101.1875 C45.68490412 103.22839681 45.30794481 105.2694115 44.93164062 107.31054688 C43.65570566 114.21422658 42.37686895 121.11565523 41 128 C58.82 128 76.64 128 95 128 C93.35 120.08 91.7 112.16 90 104 C89.01297025 98.95994953 88.04243508 93.92677396 87.125 88.875 C86.78855469 87.10962891 86.78855469 87.10962891 86.4453125 85.30859375 C86.2390625 84.17292969 86.0328125 83.03726563 85.8203125 81.8671875 C85.54598389 80.38387939 85.54598389 80.38387939 85.26611328 78.87060547 C84.51562549 70.77497659 88.45104738 64.26393604 91.875 57.1875 C92.41769531 56.03056641 92.96039063 54.87363281 93.51953125 53.68164062 C94.31037109 52.03518555 94.31037109 52.03518555 95.1171875 50.35546875 C95.83817627 48.84956177 95.83817627 48.84956177 96.57373047 47.31323242 C98 45 98 45 101 44 C103.00847365 44.98287008 105.00819591 45.98377342 107 47 C108.32 47 109.64 47 111 47 C111.30067383 46.4237085 111.60134766 45.84741699 111.91113281 45.25366211 C112.33749023 44.43647705 112.76384766 43.61929199 113.203125 42.77734375 C113.68330078 41.85646973 114.16347656 40.9355957 114.65820312 39.98681641 C115.72804197 37.93738586 116.7996858 35.88889662 117.87304688 33.84130859 C120.73413595 28.37702907 123.56279673 22.90015349 126.328125 17.38671875 C126.86018555 16.33685791 127.39224609 15.28699707 127.94042969 14.20532227 C128.96776766 12.17621719 129.98434435 10.14162218 130.98925781 8.10131836 C131.45686523 7.18358643 131.92447266 6.26585449 132.40625 5.3203125 C132.81166016 4.50836426 133.21707031 3.69641602 133.63476562 2.85986328 C135 1 135 1 136.93334961 0.14868164 C140.62148361 -0.11665488 143.79331408 1.7830932 147.0625 3.3125 C147.85108398 3.67424316 148.63966797 4.03598633 149.45214844 4.40869141 C168.1921114 13.12022176 184.95414129 22.66026462 200 37 C200.61101562 37.53625 201.22203125 38.0725 201.8515625 38.625 C214.48083239 50.15857981 221.65307019 67.18847919 223 84 C223.28401009 90.57156766 223.24715342 97.14840762 223.20581055 103.72460938 C223.18728672 106.785239 223.18530319 109.84556957 223.18554688 112.90625 C223.18064023 114.84896097 223.17481568 116.7916699 223.16796875 118.734375 C223.16685593 119.6508783 223.1657431 120.56738159 223.16459656 121.51165771 C223.11613449 127.88386551 223.11613449 127.88386551 222 129 C220.35274836 129.09716679 218.70129947 129.12371562 217.05118465 129.12304783 C215.97282437 129.12503888 214.89446409 129.12702993 213.78342623 129.12908131 C212.58403604 129.12616847 211.38464586 129.12325563 210.14891052 129.12025452 C208.88623842 129.12110894 207.62356631 129.12196337 206.32263142 129.12284368 C202.80179314 129.12509102 199.28098499 129.12106413 195.76015055 129.11606562 C191.96940332 129.1117647 188.17865792 129.11320729 184.38790894 129.1139679 C177.81484509 129.11449336 171.24179114 129.11134423 164.66872978 129.10573006 C155.16507644 129.09761808 145.6614279 129.09500015 136.15777148 129.09374207 C120.74035079 129.09155107 105.32293539 129.0848897 89.90551758 129.07543945 C74.9250491 129.06626657 59.94458205 129.05918513 44.96411133 129.05493164 C43.58003296 129.05453756 43.58003296 129.05453756 42.16799342 129.05413551 C37.53918604 129.05283051 32.91037866 129.05156679 28.28157127 129.05032361 C-10.14562285 129.03994951 -48.57281108 129.0223299 -87 129 C-87.10267446 122.31475169 -87.17199085 115.62971166 -87.21972656 108.94384766 C-87.23965772 106.67651777 -87.26681268 104.40923803 -87.30175781 102.14208984 C-87.64124943 79.5259568 -85.18636444 60.83743237 -70 43 C-69.46375 42.30777344 -68.9275 41.61554688 -68.375 40.90234375 C-55.29165079 24.81099237 -21.45459668 0 0 0 Z " fill="#385F7E" transform="translate(195,231)"/>
<path d="M0 0 C4.33652732 0.52006324 8.16697415 2.18302798 12.125 3.9375 C12.81513184 4.24324951 13.50526367 4.54899902 14.21630859 4.86401367 C32.74804671 13.22085656 49.2209473 22.91454905 64 37 C64.61101562 37.53625 65.22203125 38.0725 65.8515625 38.625 C79.06714102 50.69402148 84.35586128 66.81309829 87 84 C87 98.52 87 113.04 87 128 C44.76 128 2.52 128 -41 128 C-46.99931942 99.20326679 -46.99931942 99.20326679 -48.875 88.875 C-49.09929687 87.69808594 -49.32359375 86.52117187 -49.5546875 85.30859375 C-49.7609375 84.17292969 -49.9671875 83.03726563 -50.1796875 81.8671875 C-50.36257324 80.87831543 -50.54545898 79.88944336 -50.73388672 78.87060547 C-51.48437451 70.77497659 -47.54895262 64.26393604 -44.125 57.1875 C-43.58230469 56.03056641 -43.03960937 54.87363281 -42.48046875 53.68164062 C-41.95324219 52.58400391 -41.42601562 51.48636719 -40.8828125 50.35546875 C-40.40215332 49.35153076 -39.92149414 48.34759277 -39.42626953 47.31323242 C-38 45 -38 45 -35 44 C-32.99152635 44.98287008 -30.99180409 45.98377342 -29 47 C-27.68 47 -26.36 47 -25 47 C-24.69932617 46.4237085 -24.39865234 45.84741699 -24.08886719 45.25366211 C-23.66250977 44.43647705 -23.23615234 43.61929199 -22.796875 42.77734375 C-22.31645752 41.85646973 -21.83604004 40.9355957 -21.34106445 39.98681641 C-20.27213554 37.93818633 -19.20295862 35.88968565 -18.13354492 33.84130859 C-15.2720364 28.35943697 -12.41483743 22.87539826 -9.56640625 17.38671875 C-9.02081055 16.33685791 -8.47521484 15.28699707 -7.91308594 14.20532227 C-6.85624452 12.17143451 -5.80087605 10.13678063 -4.74707031 8.10131836 C-4.26979492 7.18358643 -3.79251953 6.26585449 -3.30078125 5.3203125 C-2.66910034 4.10239014 -2.66910034 4.10239014 -2.0246582 2.85986328 C-1 1 -1 1 0 0 Z " fill="#375E7D" transform="translate(331,231)"/>
<path d="M0 0 C1.1348584 0.00829834 2.2697168 0.01659668 3.43896484 0.02514648 C27.95681906 0.5141115 50.93592985 10.75172418 68.66015625 27.6796875 C84.07488585 43.8083068 86.79445845 60.07767869 86.5 81.625 C86.48492581 83.55011974 86.47124225 85.47525089 86.45898438 87.40039062 C86.42619566 92.07971284 86.37456443 96.75847826 86.3125 101.4375 C82.06256008 101.49645136 77.81272784 101.5314116 73.5625 101.5625 C71.78166016 101.58763672 71.78166016 101.58763672 69.96484375 101.61328125 C50.67897409 101.71866852 33.57925694 96.48778832 16.3125 88.4375 C-9.43911545 75.13217731 -9.43911545 75.13217731 -37.30517578 76.44067383 C-41.47996353 78.18751318 -45.2112273 80.54335464 -49 83 C-50.24221313 83.79410278 -50.24221313 83.79410278 -51.50952148 84.60424805 C-57.38770888 88.42778991 -62.73636638 92.55853632 -68.0234375 97.16796875 C-78.90436747 106.4375 -78.90436747 106.4375 -81.6875 106.4375 C-81.88322267 101.6040009 -82.06130048 96.77024987 -82.22460938 91.93554688 C-82.28220116 90.29866047 -82.34421391 88.66192226 -82.41113281 87.02539062 C-83.28259176 65.52940324 -82.03536991 44.11732296 -66.84765625 27.4140625 C-61.07032324 21.81394829 -54.2748784 19.53847082 -46.5625 17.6875 C-43.49955275 16.3557838 -41.86786871 14.89023913 -39.4375 12.625 C-28.40981959 2.46259668 -14.62929708 -0.13950448 0 0 Z " fill="#375E7C" transform="translate(260.6875,-0.4375)"/>
<path d="M0 0 C1.16781006 0.00523682 2.33562012 0.01047363 3.53881836 0.01586914 C4.67327393 0.0183667 5.80772949 0.02086426 6.9765625 0.0234375 C9.15560181 0.03709351 9.15560181 0.03709351 11.37866211 0.05102539 C15.97803711 0.07165039 20.57741211 0.09227539 25.31616211 0.11352539 C24.98616211 10.34352539 24.65616211 20.57352539 24.31616211 31.11352539 C28.27616211 32.10352539 32.23616211 33.09352539 36.31616211 34.11352539 C38.91461886 34.96449601 41.50181244 35.85221601 44.06616211 36.80102539 C45.25725586 37.23801758 46.44834961 37.67500977 47.67553711 38.12524414 C48.54694336 38.45137695 49.41834961 38.77750977 50.31616211 39.11352539 C49.00546454 43.34400425 47.3907435 47.15576886 45.33959961 51.07836914 C44.7549292 52.20194824 44.17025879 53.32552734 43.56787109 54.4831543 C42.94280231 55.67270799 42.31722393 56.86199403 41.69116211 58.05102539 C41.05311336 59.26630005 40.41517431 60.4816323 39.77734375 61.69702148 C38.52467443 64.08355025 37.27023878 66.46912323 36.01489258 68.85424805 C34.57441948 71.61801865 33.16890987 74.39353462 31.78881836 77.18774414 C31.43577637 77.88971924 31.08273437 78.59169434 30.71899414 79.31494141 C29.82339125 81.09957853 28.94220243 82.89142939 28.06225586 84.68383789 C26.31616211 87.11352539 26.31616211 87.11352539 23.80053711 88.07055664 C20.38570841 88.12961814 18.26161176 86.74988631 15.31616211 85.11352539 C14.65616211 85.11352539 13.99616211 85.11352539 13.31616211 85.11352539 C11.3243609 89.14908395 9.34999333 93.19293305 7.37866211 97.23852539 C6.81469727 98.38063477 6.25073242 99.52274414 5.66967773 100.69946289 C5.13149414 101.80805664 4.59331055 102.91665039 4.03881836 104.05883789 C3.29257202 105.58275146 3.29257202 105.58275146 2.53125 107.13745117 C-0.39348446 114.30090568 0.74054231 119.92657571 2.18725586 127.31274414 C2.38843521 128.38474564 2.58961456 129.45674713 2.79689026 130.56123352 C3.43954189 133.97639817 4.09601594 137.38871946 4.75366211 140.80102539 C5.4051206 144.2244842 6.05370438 147.64846275 6.69972229 151.07295227 C7.10217353 153.2015838 7.50826239 155.32953141 7.9183197 157.45671082 C8.10173416 158.41813492 8.28514862 159.37955902 8.47412109 160.37011719 C8.63702133 161.21583786 8.79992157 162.06155853 8.96775818 162.9329071 C9.31616211 165.11352539 9.31616211 165.11352539 9.31616211 168.11352539 C-8.50383789 168.11352539 -26.32383789 168.11352539 -44.68383789 168.11352539 C-43.5594779 157.99428549 -43.5594779 157.99428549 -42.92773438 154.546875 C-42.78766464 153.77254623 -42.64759491 152.99821747 -42.50328064 152.20042419 C-42.35532547 151.39702103 -42.2073703 150.59361786 -42.05493164 149.76586914 C-41.73895102 148.0087482 -41.42320277 146.25158547 -41.10766602 144.49438477 C-40.61449009 141.76655915 -40.11916563 139.03916832 -39.61962891 136.3125 C-39.13356807 133.65219557 -38.65620564 130.99044064 -38.17993164 128.32836914 C-38.02995224 127.52294174 -37.87997284 126.71751434 -37.72544861 125.88768005 C-36.37985675 118.3087481 -35.70600843 112.04827133 -39.30883789 104.93383789 C-39.85024414 103.84071289 -40.39165039 102.74758789 -40.94946289 101.62133789 C-41.52180664 100.50500977 -42.09415039 99.38868164 -42.68383789 98.23852539 C-43.81185945 95.99264463 -44.93701675 93.74532218 -46.05883789 91.49633789 C-46.56157227 90.51036621 -47.06430664 89.52439453 -47.58227539 88.50854492 C-48.68383789 86.11352539 -48.68383789 86.11352539 -48.68383789 84.11352539 C-49.20333008 84.40227539 -49.72282227 84.69102539 -50.25805664 84.98852539 C-51.30413086 85.54540039 -51.30413086 85.54540039 -52.37133789 86.11352539 C-53.05583008 86.48477539 -53.74032227 86.85602539 -54.44555664 87.23852539 C-57.0050991 88.23911441 -58.95908605 88.17666229 -61.68383789 88.11352539 C-64.92301837 81.77820304 -68.16192261 75.44273951 -71.40063477 69.10717773 C-72.50245911 66.95187174 -73.60434671 64.79659809 -74.70629883 62.64135742 C-76.29012411 59.54362346 -77.87372196 56.44577333 -79.45727539 53.34790039 C-79.95004974 52.38422546 -80.4428241 51.42055054 -80.95053101 50.42767334 C-81.41085724 49.52704163 -81.87118347 48.62640991 -82.34545898 47.69848633 C-82.74961029 46.90794861 -83.1537616 46.11741089 -83.57015991 45.30291748 C-84.61731368 43.24430608 -85.65371095 41.18070103 -86.68383789 39.11352539 C-82.56034389 37.77550274 -78.43480437 36.44390238 -74.30883789 35.11352539 C-73.13321289 34.73196289 -71.95758789 34.35040039 -70.74633789 33.95727539 C-69.62485352 33.59633789 -68.50336914 33.23540039 -67.34790039 32.86352539 C-66.31101074 32.52836914 -65.27412109 32.19321289 -64.20581055 31.84790039 C-61.68383789 31.11352539 -61.68383789 31.11352539 -59.68383789 31.11352539 C-59.68383789 21.21352539 -59.68383789 11.31352539 -59.68383789 1.11352539 C-57.41508789 2.35102539 -55.14633789 3.58852539 -52.80883789 4.86352539 C-40.90853897 11.76961533 -40.90853897 11.76961533 -27.68383789 13.11352539 C-19.00296532 10.24947108 -8.44254053 0.35711647 0 0 Z " fill="#EA9A58" transform="translate(280.683837890625,190.886474609375)"/>
<path d="M0 0 C5.51345681 -0.0996177 11.02637828 -0.1718191 16.54052734 -0.21972656 C18.41236509 -0.23971863 20.28414138 -0.26692168 22.15576172 -0.30175781 C33.98125477 -0.51619342 43.09600723 -0.42897649 53.3125 6.125 C60.13242021 13.42072859 61.74096682 20.92063514 61.63110352 30.65673828 C61.63825882 31.77676239 61.64541412 32.8967865 61.65278625 34.05075073 C61.66958832 37.72436269 61.65032119 41.39673989 61.62890625 45.0703125 C61.6297356 47.63760478 61.63219749 50.20489701 61.63621521 52.77218628 C61.63906728 58.14013136 61.62496281 63.50762546 61.59692383 68.87548828 C61.56484595 75.06393045 61.56490524 81.25174245 61.5821386 87.44022954 C61.598049 93.41933131 61.5911432 99.39814201 61.57420158 105.37725449 C61.5690294 107.91052613 61.56948982 110.44381591 61.57574654 112.97708511 C61.58121246 116.51913417 61.56077839 120.06012266 61.53344727 123.60205078 C61.53997314 124.64226379 61.54649902 125.68247681 61.55322266 126.75421143 C61.45390615 134.34541995 59.89649156 139.73561774 54.81640625 145.4609375 C54.07261719 146.09257812 53.32882812 146.72421875 52.5625 147.375 C51.82128906 148.02210938 51.08007812 148.66921875 50.31640625 149.3359375 C44.73943233 153.34233023 39.7415272 153.27019632 33.10546875 153.1953125 C31.68443596 153.19106766 31.68443596 153.19106766 30.23469543 153.18673706 C27.21883334 153.17557187 24.20327184 153.15047389 21.1875 153.125 C19.13867617 153.11496547 17.08984768 153.10584045 15.04101562 153.09765625 C10.02722852 153.07564449 5.01366517 153.04113971 0 153 C0 152.67 0 152.34 0 152 C0.65226562 151.84144531 1.30453125 151.68289063 1.9765625 151.51953125 C9.33978936 149.55383205 14.30845905 146.92406366 18.6237793 140.42797852 C22.47102905 133.29155637 21.72842983 125.16174231 21.70703125 117.27734375 C21.72016328 115.5638301 21.7354721 113.85033189 21.75285339 112.13685608 C21.79254066 107.65373492 21.80288327 103.17102021 21.80688477 98.68774414 C21.81624707 94.10225217 21.85367984 89.51699596 21.88867188 84.93164062 C21.95308172 75.95443794 21.98645782 66.97741357 22 58 C21.01 58 20.02 58 19 58 C19.00666183 58.5902446 19.01332367 59.1804892 19.02018738 59.78862 C19.08660302 65.93674264 19.1318265 72.08476321 19.16479492 78.2331543 C19.17987308 80.52714172 19.2003387 82.82110037 19.22631836 85.11499023 C19.26274358 88.41397205 19.27973631 91.7125724 19.29296875 95.01171875 C19.30845261 96.03585373 19.32393646 97.05998871 19.33988953 98.11515808 C19.34200851 107.0983663 19.34200851 107.0983663 16 111 C13.074084 112.462958 11.24382653 112.44523109 8 112 C4.93321889 109.33301425 3.28536732 107.60043825 2.56552124 103.56329346 C2.42139844 100.59475354 2.4380532 97.666456 2.51171875 94.6953125 C2.52233086 93.07663773 2.52233086 93.07663773 2.53315735 91.42526245 C2.56106338 87.99112552 2.62379831 84.55864106 2.6875 81.125 C2.71258761 78.79169027 2.73539996 76.4583549 2.75585938 74.125 C2.81087756 68.41610638 2.89446684 62.70817127 3 57 C2.3085791 57.01740234 1.6171582 57.03480469 0.90478516 57.05273438 C-0.45187256 57.07303711 -0.45187256 57.07303711 -1.8359375 57.09375 C-2.7336084 57.11115234 -3.6312793 57.12855469 -4.55615234 57.14648438 C-7 57 -7 57 -9.625 55.5 C-11.25708441 52.5325738 -11.55705755 50.33794373 -11.7265625 47 C-10.80368949 44.45961837 -9.4822612 43.16273055 -7.18408203 41.76757812 C-2.09097161 39.97764529 3.55290526 40.60585993 8.875 40.75 C10.13570313 40.76804687 11.39640625 40.78609375 12.6953125 40.8046875 C15.79765614 40.85169271 18.8984338 40.91739324 22 41 C21.94760893 37.49883157 21.8524183 34.00003403 21.75 30.5 C21.73582031 29.51773437 21.72164063 28.53546875 21.70703125 27.5234375 C21.45592958 19.9903875 20.00847067 14.63979856 15.17578125 8.79296875 C10.43799135 4.71072211 6.08368147 2.47867258 0 1 C0 0.67 0 0.34 0 0 Z " fill="#85BEEF" transform="translate(451,359)"/>
<path d="M0 0 C4.33298777 0.66724717 8.14278596 2.17230609 12.125 3.9375 C12.81513184 4.24324951 13.50526367 4.54899902 14.21630859 4.86401367 C32.74804671 13.22085656 49.2209473 22.91454905 64 37 C64.61101562 37.53625 65.22203125 38.0725 65.8515625 38.625 C78.46767467 50.14656363 85.68095828 67.19723692 87 84 C87.3056677 91.59987896 87.18987938 99.20875859 87.125 106.8125 C87.11494778 108.87304251 87.10582591 110.93358979 87.09765625 112.99414062 C87.07754298 117.99630995 87.03836365 122.99780583 87 128 C76.11 128 65.22 128 54 128 C53.896875 123.936875 53.79375 119.87375 53.6875 115.6875 C52.78671572 89.04772818 48.20996486 66.79837819 29 47 C28.45988281 46.38640625 27.91976562 45.7728125 27.36328125 45.140625 C17.25692668 34.04145474 2.41366498 28.02259357 -11 22 C-9.48968084 16.73877829 -7.09625809 12.32767414 -4.375 7.625 C-3.95476562 6.88894531 -3.53453125 6.15289062 -3.1015625 5.39453125 C-2.07247236 3.5936235 -1.03689244 1.79642682 0 0 Z " fill="#2B4D66" transform="translate(331,231)"/>
<path d="M0 0 C1.86206229 0.94204485 3.69959554 1.93389062 5.51171875 2.96875 C6.51654297 3.53980469 7.52136719 4.11085938 8.55664062 4.69921875 C9.58982422 5.29347656 10.62300781 5.88773437 11.6875 6.5 C12.73228516 7.09425781 13.77707031 7.68851562 14.85351562 8.30078125 C22.46360561 12.64240374 22.46360561 12.64240374 26 15 C23.73068588 22.76993423 20.25064341 29.57705629 16.3203125 36.62695312 C15.87945312 37.46291016 15.43859375 38.29886719 14.984375 39.16015625 C14.57928711 39.89886963 14.17419922 40.63758301 13.75683594 41.39868164 C12.68449359 45.08442605 13.33532848 48.30163873 14 52 C14.20180374 53.19909248 14.20180374 53.19909248 14.40768433 54.42240906 C14.87073563 57.1247187 15.35698372 59.82210531 15.84765625 62.51953125 C16.20899909 64.53059631 16.57032677 66.5416641 16.93164062 68.55273438 C17.49933802 71.69764469 18.06790979 74.84239526 18.63696289 77.98706055 C19.18850865 81.03916832 19.73695753 84.09182082 20.28515625 87.14453125 C20.45700943 88.08827103 20.62886261 89.0320108 20.80592346 90.00434875 C20.96286179 90.87923447 21.11980011 91.75412018 21.28149414 92.65551758 C21.42059708 93.42414627 21.55970001 94.19277496 21.70301819 94.98469543 C22 97 22 97 22 100 C4.18 100 -13.64 100 -32 100 C-30.87564001 89.8807601 -30.87564001 89.8807601 -30.24389648 86.43334961 C-30.10382675 85.65902084 -29.96375702 84.88469208 -29.81944275 84.0868988 C-29.59750999 82.88179405 -29.59750999 82.88179405 -29.37109375 81.65234375 C-29.05511313 79.89522281 -28.73936488 78.13806007 -28.42382812 76.38085938 C-27.93065219 73.65303376 -27.43532774 70.92564293 -26.93579102 68.19897461 C-26.44973018 65.53867018 -25.97236775 62.87691525 -25.49609375 60.21484375 C-25.27112465 59.00670265 -25.27112465 59.00670265 -25.04161072 57.77415466 C-23.64336539 49.89865649 -23.14065961 43.71868078 -26.84375 36.3125 C-27.13229858 35.72452637 -27.42084717 35.13655273 -27.71813965 34.53076172 C-28.63082248 32.6794851 -29.56479868 30.83998566 -30.5 29 C-31.12775101 27.73639587 -31.75406683 26.47207767 -32.37890625 25.20703125 C-33.90532359 22.13071323 -35.44590639 19.06240377 -37 16 C-32.1713667 12.20711364 -26.81823784 9.27982353 -21.4921875 6.25512695 C-20.24620937 5.54269725 -19.00495294 4.82194621 -17.76855469 4.09301758 C-15.97354828 3.03560342 -14.16506522 2.00575771 -12.3515625 0.98046875 C-11.27729004 0.36067139 -10.20301758 -0.25912598 -9.09619141 -0.89770508 C-5.17066804 -2.29525578 -3.72785911 -1.73501535 0 0 Z " fill="#E43A50" transform="translate(268,259)"/>
<path d="M0 0 C0.61359375 0.38285156 1.2271875 0.76570313 1.859375 1.16015625 C7.690091 5.35286183 11.87208512 13.24533441 14 20 C14.7886634 29.13382264 15.20095321 38.08550599 10 46 C9.34644531 47.04027344 9.34644531 47.04027344 8.6796875 48.1015625 C2.5201843 57.08837864 -5.44041634 61.61471334 -16 64 C-25.58414413 65.29730128 -34.27831187 62.781617 -42.25 57.375 C-49.1194597 51.77505031 -54.44819027 43.78435149 -56 35 C-57.10861806 23.99696575 -55.00744738 14.7119616 -48 6 C-34.32503288 -7.62267279 -16.55590253 -10.8550493 0 0 Z " fill="#2D4F68" transform="translate(345,407)"/>
<path d="M0 0 C30.22636458 -0.90633777 55.80213248 4.28894388 79 25 C90.05141754 35.55493122 98.6922147 49.12365908 99.23339844 64.72387695 C99.33052553 70.21293716 99.26250963 75.69858806 99.1875 81.1875 C99.17242581 83.11261974 99.15874225 85.03775089 99.14648438 86.96289062 C99.11626771 91.64244416 99.05751003 96.3203874 99 101 C90.09 101 81.18 101 72 101 C71.94392578 97.21982422 71.94392578 97.21982422 71.88671875 93.36328125 C71.84028836 90.87744273 71.7891338 88.39174215 71.73754883 85.90600586 C71.70463379 84.20036454 71.67650214 82.49462303 71.65356445 80.78881836 C71.36908071 60.17887944 67.78420381 42.69331959 52.80859375 27.6796875 C39.15289265 14.65074319 23.10334691 6.64266368 4.625 2.8125 C3.42875 2.544375 2.2325 2.27625 1 2 C0.67 1.34 0.34 0.68 0 0 Z " fill="#2C4D66" transform="translate(248,0)"/>
<path d="M0 0 C0.97549805 0.0007251 1.95099609 0.0014502 2.95605469 0.00219727 C4.035 0.00026367 5.11394531 -0.00166992 6.22558594 -0.00366211 C7.34835937 0.02018555 8.47113281 0.0440332 9.62792969 0.06860352 C10.73523438 0.05764648 11.84253906 0.04668945 12.98339844 0.03540039 C20.97817748 0.10669747 26.66975753 1.26003791 32.65527344 6.70141602 C33.203125 7.37946289 33.75097656 8.05750977 34.31542969 8.75610352 C34.88132812 9.43930664 35.44722656 10.12250977 36.03027344 10.82641602 C39.70567295 15.74825536 38.86124357 21.7415786 38.37792969 27.63110352 C36.6516864 34.08891726 32.50734339 37.66402001 27.37792969 41.63110352 C26.71792969 42.29110352 26.05792969 42.95110352 25.37792969 43.63110352 C26.28285156 44.6269043 26.28285156 44.6269043 27.20605469 45.64282227 C28.00527344 46.52583008 28.80449219 47.40883789 29.62792969 48.31860352 C30.41683594 49.1887207 31.20574219 50.05883789 32.01855469 50.95532227 C38.9481422 58.81420877 38.9481422 58.81420877 38.94042969 62.69360352 C38.37792969 66.63110352 38.37792969 66.63110352 36.19042969 69.13110352 C33.09807968 70.78035685 31.79515449 71.3999791 28.37792969 70.63110352 C26.00292969 68.56860352 26.00292969 68.56860352 23.37792969 65.63110352 C22.23710936 64.50102032 21.09096466 63.37629471 19.94042969 62.25610352 C16.54859201 58.87170408 13.45212845 55.30514593 10.37792969 51.63110352 C10.32894531 52.52313477 10.27996094 53.41516602 10.22949219 54.33422852 C10.15472656 55.50469727 10.07996094 56.67516602 10.00292969 57.88110352 C9.93332031 59.04125977 9.86371094 60.20141602 9.79199219 61.39672852 C9.40934434 64.38571362 9.04439536 66.15974627 7.37792969 68.63110352 C3.85220162 70.98158889 2.52779324 71.29508168 -1.62207031 70.63110352 C-4.94885667 67.87677272 -6.37269984 66.13659643 -7.08425903 61.84078979 C-7.26838936 58.32255329 -7.28852579 54.83760774 -7.25097656 51.31469727 C-7.25338852 50.02547867 -7.25580048 48.73626007 -7.25828552 47.40797424 C-7.26113532 44.68686166 -7.24652323 41.96657595 -7.21899414 39.24560547 C-7.18487643 35.76620987 -7.19094735 32.28828832 -7.20965672 28.80882168 C-7.2227925 25.47730144 -7.2045064 22.14620722 -7.18847656 18.81469727 C-7.19343643 17.56877304 -7.1983963 16.32284882 -7.20350647 15.03916931 C-7.18767014 13.87768875 -7.1718338 12.71620819 -7.15551758 11.51953125 C-7.149319 10.50060287 -7.14312042 9.4816745 -7.13673401 8.43186951 C-6.33968224 4.09436621 -4.38184948 1.05466303 0 0 Z " fill="#2D4F69" transform="translate(384.6220703125,400.368896484375)"/>
<path d="M0 0 C1.05928711 -0.00563965 2.11857422 -0.0112793 3.20996094 -0.01708984 C4.37914062 -0.02353516 5.54832031 -0.02998047 6.75292969 -0.03662109 C7.97109375 -0.01728516 9.18925781 0.00205078 10.44433594 0.02197266 C11.64703125 0.00263672 12.84972656 -0.01669922 14.08886719 -0.03662109 C22.8568263 0.01150162 27.80216481 1.64483989 34.21777344 7.49072266 C34.66378906 8.03728516 35.10980469 8.58384766 35.56933594 9.14697266 C36.03082031 9.69353516 36.49230469 10.24009766 36.96777344 10.80322266 C40.7092726 16.427387 41.02973897 22.0868604 40.19433594 28.64697266 C37.91830355 36.03613827 33.91378548 40.88000852 27.19433594 44.64697266 C23.13855391 46.65100613 19.88407526 46.86292699 15.38183594 46.77197266 C14.22039062 46.75392578 13.05894531 46.73587891 11.86230469 46.71728516 C10.54166016 46.68248047 10.54166016 46.68248047 9.19433594 46.64697266 C9.21753906 47.89994141 9.24074219 49.15291016 9.26464844 50.44384766 C9.28341021 52.09488336 9.30160997 53.74592551 9.31933594 55.39697266 C9.34447266 56.63447266 9.34447266 56.63447266 9.37011719 57.89697266 C9.3765625 58.69619141 9.38300781 59.49541016 9.38964844 60.31884766 C9.40012207 61.05200195 9.4105957 61.78515625 9.42138672 62.54052734 C9.15457779 65.0158257 8.52503523 66.54726517 7.19433594 68.64697266 C4.19433594 70.64697266 4.19433594 70.64697266 0.75683594 70.58447266 C-3.55430438 69.44996205 -4.42994085 68.33643475 -6.80566406 64.64697266 C-7.31359863 61.83947754 -7.31359863 61.83947754 -7.32324219 58.74267578 C-7.33585083 57.57796753 -7.34845947 56.41325928 -7.3614502 55.21325684 C-7.35335327 53.96419556 -7.34525635 52.71513428 -7.33691406 51.42822266 C-7.34074097 50.13758911 -7.34456787 48.84695557 -7.34851074 47.51721191 C-7.35439526 44.79025036 -7.34587782 42.06381433 -7.32714844 39.33691406 C-7.30435808 35.84968484 -7.31748699 32.36368708 -7.34143829 28.87650299 C-7.35940697 25.53947872 -7.3468089 22.20278187 -7.33691406 18.86572266 C-7.34501099 17.61666138 -7.35310791 16.3676001 -7.3614502 15.08068848 C-7.34884155 13.91598022 -7.33623291 12.75127197 -7.32324219 11.55126953 C-7.32005981 10.52932495 -7.31687744 9.50738037 -7.31359863 8.45446777 C-6.50260025 3.97185501 -4.50680738 1.03924813 0 0 Z " fill="#2E506A" transform="translate(172.8056640625,400.35302734375)"/>
<path d="M0 0 C0.05893685 3.9374352 0.09390669 7.87475427 0.125 11.8125 C0.14175781 12.91271484 0.15851563 14.01292969 0.17578125 15.14648438 C0.24643031 27.12150049 -0.78856702 38.89245119 -8.9765625 48.26171875 C-19.71619126 58.52698229 -30.9346246 58.60416439 -44.9921875 58.53125 C-46.8291952 58.53394846 -48.6662015 58.53783382 -50.50320435 58.54284668 C-54.33430719 58.54871619 -58.16503479 58.54025552 -61.99609375 58.52148438 C-66.90570551 58.49859908 -71.81444711 58.51189414 -76.72402763 58.53577423 C-80.50900859 58.55021882 -84.29378255 58.54563408 -88.07876968 58.53526306 C-89.88967111 58.53259708 -91.70059139 58.53586104 -93.51147079 58.54518127 C-96.03663906 58.5553357 -98.5603869 58.53986699 -101.08544922 58.51757812 C-101.83146896 58.52567505 -102.57748871 58.53377197 -103.34611511 58.54211426 C-106.76388217 58.48619783 -108.67813292 58.23696333 -111.46340942 56.18640137 C-113.71552335 52.98188805 -113.54558897 50.81912276 -113 47 C-110.95851671 44.3612718 -109.7627808 43.15373582 -106.45838928 42.48774719 C-105.50024826 42.48188095 -104.54210724 42.47601471 -103.55493164 42.4699707 C-102.46181168 42.45347977 -101.36869171 42.43698883 -100.2424469 42.41999817 C-98.46921303 42.42286079 -98.46921303 42.42286079 -96.66015625 42.42578125 C-95.42825058 42.41161667 -94.19634491 42.39745209 -92.92710876 42.38285828 C-89.63890206 42.34797403 -86.35116636 42.32966037 -83.06280518 42.32006836 C-77.24096092 42.29804082 -71.41925146 42.23195368 -65.59765625 42.17578125 C-63.71948715 42.15791061 -63.71948715 42.15791061 -61.80337524 42.13967896 C-54.19815762 42.05877703 -46.5968703 41.94710614 -38.99609375 41.66796875 C-37.74264915 41.63598137 -37.74264915 41.63598137 -36.46388245 41.60334778 C-30.9571229 41.36197279 -26.57263414 40.34653565 -22.35546875 36.5 C-18.62219118 31.70542279 -17.87326102 28.570098 -17.68359375 22.58203125 C-17.64169922 21.32841797 -17.59980469 20.07480469 -17.55664062 18.78320312 C-17.51732422 17.47287109 -17.47800781 16.16253906 -17.4375 14.8125 C-17.39429008 13.47720022 -17.350675 12.14191348 -17.30664062 10.80664062 C-17.20043498 7.53786703 -17.09839003 4.26901667 -17 1 C-13.59375 0.75 -13.59375 0.75 -10.1875 0.5 C-8.29064453 0.36078125 -8.29064453 0.36078125 -6.35546875 0.21875 C-4.24021483 0.08085219 -2.11974408 0 0 0 Z " fill="#365E7D" transform="translate(374,133)"/>
<path d="M0 0 C1.63582031 -0.03577148 1.63582031 -0.03577148 3.3046875 -0.07226562 C10.79067634 -0.05883383 16.69287917 1.17899878 22.875 5.5625 C28.81431803 11.911553 30.1896983 16.93607165 30.0859375 25.55859375 C29.59592517 32.53673231 26.0042079 38.0082143 20.875 42.5625 C14.02001043 47.27097768 6.92963677 47.01067144 -1.125 46.5625 C-1.03798828 48.53283203 -1.03798828 48.53283203 -0.94921875 50.54296875 C-0.90230952 52.27861023 -0.85681061 54.01429023 -0.8125 55.75 C-0.7496582 57.04647461 -0.7496582 57.04647461 -0.68554688 58.36914062 C-0.59872435 62.90127658 -0.65107009 64.91982844 -3.41796875 68.671875 C-6.125 70.5625 -6.125 70.5625 -9.75 70.625 C-13.51804457 69.43876375 -14.22362531 68.90137885 -16.125 65.5625 C-16.51268005 62.79260254 -16.51268005 62.79260254 -16.52905273 59.57226562 C-16.54173691 58.36421265 -16.55442108 57.15615967 -16.56748962 55.91149902 C-16.56455399 54.61039185 -16.56161835 53.30928467 -16.55859375 51.96875 C-16.56315643 50.61641172 -16.56846227 49.26407576 -16.57447815 47.91174316 C-16.58340383 45.08055182 -16.58099213 42.24964265 -16.57104492 39.41845703 C-16.55954804 35.79327572 -16.57977876 32.16906746 -16.60896206 28.54401398 C-16.62732127 25.75239902 -16.62703243 22.96101748 -16.62132454 20.1693573 C-16.62109694 18.18403988 -16.63799518 16.19874441 -16.65513611 14.21350098 C-16.64575516 13.005448 -16.63637421 11.79739502 -16.62670898 10.55273438 C-16.62654282 9.49002319 -16.62637665 8.42731201 -16.62620544 7.33239746 C-15.04914638 -1.38317405 -6.99650939 -0.0688314 0 0 Z " fill="#2B4E67" transform="translate(245.125,400.4375)"/>
<path d="M0 0 C2.38696853 1.72590096 3.8333607 3.1926351 5.35546875 5.703125 C5.87771368 9.28423311 5.79827344 11.00201757 3.85546875 14.078125 C0.38722895 16.33248087 -2.68213013 16.4791885 -6.64453125 15.703125 C-8.47131254 14.77978456 -10.12910358 13.71316185 -11.84375 12.59765625 C-15.11304033 10.97364869 -18.06043233 11.3993878 -21.64453125 11.703125 C-22.30453125 12.033125 -22.96453125 12.363125 -23.64453125 12.703125 C-24.30008244 15.23045735 -24.30008244 15.23045735 -24.64453125 17.703125 C-23.40703125 18.095 -22.16953125 18.486875 -20.89453125 18.890625 C-10.08214273 22.55151245 -0.39218772 25.87836882 6.35546875 35.578125 C8.53672222 42.39454209 7.85879152 48.23723395 4.6796875 54.62890625 C1.30088003 59.92137459 -3.54398101 63.3114729 -9.484375 65.234375 C-19.16120599 67.33422983 -28.34630646 65.02955913 -36.58203125 59.765625 C-39.56714985 57.73401071 -41.6880923 55.75445181 -43.64453125 52.703125 C-44.33936781 48.62096022 -43.98121636 47.18264621 -41.58203125 43.765625 C-38.64453125 41.703125 -38.64453125 41.703125 -35.20703125 41.578125 C-30.89061709 42.94120316 -29.00290175 44.71790678 -25.64453125 47.703125 C-22.78451226 48.67813147 -20.0917832 48.86516179 -17.08203125 48.890625 C-15.93541016 48.91189453 -15.93541016 48.91189453 -14.765625 48.93359375 C-12.34299622 48.8354625 -12.34299622 48.8354625 -9.64453125 46.703125 C-9.39422148 44.11932323 -9.39422148 44.11932323 -9.64453125 41.703125 C-15.93389918 38.43321026 -22.26772174 35.56413695 -28.8828125 33.01171875 C-33.7514444 30.70479982 -37.38939401 27.65332702 -39.90625 22.81640625 C-41.73797612 17.57321137 -41.7130819 12.31603375 -39.609375 7.171875 C-30.80853865 -7.53704369 -13.76938416 -7.52093259 0 0 Z " fill="#2D4F69" transform="translate(70.64453125,405.296875)"/>
<path d="M0 0 C2.18286133 1.41186523 2.18286133 1.41186523 4 4 C4.60680602 7.29863003 4.58106889 10.5634039 4.57421875 13.91015625 C4.58838333 14.87400742 4.60254791 15.83785858 4.61714172 16.83091736 C4.65905467 19.90822509 4.67428337 22.98494696 4.6875 26.0625 C4.71655783 29.14335058 4.75110791 32.22405262 4.78999329 35.30479431 C4.81247202 37.22119948 4.82829668 39.13769651 4.83683777 41.05421448 C4.84387222 41.9219902 4.85090668 42.78976593 4.8581543 43.68383789 C4.86163376 44.44676651 4.86511322 45.20969513 4.86869812 45.9957428 C4.92859367 48.20833874 4.92859367 48.20833874 6 51 C10.36186978 53.58986018 15.08477643 53.43631514 20 53 C22.92876584 52.35062487 22.92876584 52.35062487 25 51 C25.92484589 48.22546233 26.12878221 46.54822038 26.1418457 43.68383789 C26.14888016 42.81606216 26.15591461 41.94828644 26.16316223 41.05421448 C26.16732651 40.11980026 26.17149078 39.18538605 26.17578125 38.22265625 C26.19897337 36.24543199 26.22309046 34.2682184 26.24804688 32.29101562 C26.28320755 29.17253408 26.31253458 26.05444698 26.32592773 22.93579102 C26.3413806 19.92676122 26.38156555 16.91888271 26.42578125 13.91015625 C26.42387283 12.97776627 26.42196442 12.04537628 26.41999817 11.08473206 C26.5417895 4.65262522 26.5417895 4.65262522 28.81713867 1.41186523 C32.04185261 -0.67386575 34.24784123 -0.53602268 38 0 C40.18334961 1.36816406 40.18334961 1.36816406 42 4 C42.61730488 7.53198212 42.58407997 11.03106633 42.56640625 14.609375 C42.57570412 16.17054047 42.57570412 16.17054047 42.58518982 17.76324463 C42.59229163 19.96552597 42.58910775 22.16786096 42.57641602 24.37011719 C42.5626057 27.72432673 42.59655145 31.07571597 42.63476562 34.4296875 C42.6357174 36.57291735 42.63385489 38.71615066 42.62890625 40.859375 C42.64216446 41.85547791 42.65542267 42.85158081 42.66908264 43.87786865 C42.56879001 51.45981398 40.55950758 56.27799196 35.3217926 61.75482178 C29.68867113 67.11336624 23.2930279 70.17347648 15.5 70.5 C6.11947831 70.09442654 -0.62221903 65.6629053 -7 59 C-10.18602636 54.58067311 -11.1104434 50.77023362 -11.17700195 45.38671875 C-11.18983719 44.47897705 -11.20267242 43.57123535 -11.21589661 42.63598633 C-11.22328354 41.66298584 -11.23067047 40.68998535 -11.23828125 39.6875 C-11.246353 38.68162842 -11.25442474 37.67575684 -11.26274109 36.6394043 C-11.27655641 34.5145031 -11.28728995 32.38957995 -11.29516602 30.26464844 C-11.31243657 27.01194677 -11.35635237 23.76024673 -11.40039062 20.5078125 C-11.41051306 18.4427158 -11.41903056 16.37761048 -11.42578125 14.3125 C-11.44328934 13.33949951 -11.46079742 12.36649902 -11.47883606 11.36401367 C-11.45723265 4.66093428 -11.45723265 4.66093428 -9.19213867 1.38671875 C-5.95643599 -0.66014518 -3.74354411 -0.53479202 0 0 Z " fill="#2C4E67" transform="translate(104,401)"/>
<path d="M0 0 C27.51351351 0 27.51351351 0 33.6875 5.3125 C39.50015198 12.06774419 39.52987389 18.25012494 39.50097656 26.83056641 C39.50000537 28.86375209 39.54165339 30.89314038 39.5859375 32.92578125 C39.60088998 40.46930574 39.35526495 46.32910431 34 52 C23.31495477 60.50442375 14.06309759 57 -1 57 C-0.67 38.19 -0.34 19.38 0 0 Z " fill="#9ED4FD" transform="translate(347,77)"/>
<path d="M0 0 C8.91 0 17.82 0 27 0 C27.04631577 3.94713275 27.08601564 7.89355885 27.10986328 11.84082031 C27.12467591 13.83144637 27.15010992 15.82198437 27.17578125 17.8125 C27.28418376 39.2761969 19.26934787 58.01929454 5 74 C2.40672157 75.29663922 0.53591932 75.12003569 -2.36767578 75.11352539 C-3.48868683 75.11344986 -4.60969788 75.11337433 -5.76467896 75.11329651 C-6.97928802 75.10813522 -8.19389709 75.10297394 -9.4453125 75.09765625 C-10.68546112 75.0962413 -11.92560974 75.09482635 -13.20333862 75.09336853 C-16.50118133 75.08871096 -19.79897546 75.07972439 -23.09680176 75.06866455 C-26.46166387 75.05843731 -29.82653308 75.05386809 -33.19140625 75.04882812 C-39.79428993 75.03778269 -46.39714099 75.02103247 -53 75 C-53 74.67 -53 74.34 -53 74 C-52.1435791 74.03778564 -51.2871582 74.07557129 -50.40478516 74.11450195 C-33.93445633 75.48932278 -33.93445633 75.48932278 -19.0625 70.6015625 C-16.86498554 67.74901969 -15.27895504 65.2321374 -13.859375 61.95605469 C-12.96053789 59.91017887 -11.91878736 58.01111698 -10.8125 56.0703125 C-3.39091342 42.62538574 -0.41599371 29.5020537 -0.25 14.125 C-0.22173889 12.74345405 -0.19179801 11.36194141 -0.16015625 9.98046875 C-0.09036913 6.65394948 -0.04281822 3.3269757 0 0 Z " fill="#F2A86C" transform="translate(320,101)"/>
<path d="M0 0 C0.33 18.81 0.66 37.62 1 57 C-25 57 -25 57 -33 52 C-38.75606255 45.47141327 -38.72721842 39.41057537 -38.54199219 30.90869141 C-38.49993276 28.8717435 -38.50095121 26.83809302 -38.5078125 24.80078125 C-38.37700954 11.62892356 -38.37700954 11.62892356 -33.0625 5.91796875 C-32.381875 5.34691406 -31.70125 4.77585937 -31 4.1875 C-30.319375 3.60355469 -29.63875 3.01960938 -28.9375 2.41796875 C-20.77963422 -3.55240479 -9.38858828 0 0 0 Z " fill="#9ED3FD" transform="translate(179,77)"/>
<path d="M0 0 C1.77252172 0.62715469 3.51929904 1.32776846 5.25 2.0625 C6.71280513 2.57602339 8.17932247 3.07903582 9.6484375 3.57421875 C13.87374067 5.00702203 18.06418335 6.51831242 22.25 8.0625 C20.93930243 12.29297886 19.32458139 16.10474347 17.2734375 20.02734375 C16.68876709 21.15092285 16.10409668 22.27450195 15.50170898 23.43212891 C14.8766402 24.6216826 14.25106182 25.81096864 13.625 27 C12.98695125 28.21527465 12.3490122 29.43060691 11.71118164 30.64599609 C10.45851232 33.03252486 9.20407667 35.41809784 7.94873047 37.80322266 C6.50825737 40.56699326 5.10274776 43.34250923 3.72265625 46.13671875 C3.36961426 46.83869385 3.01657227 47.54066895 2.65283203 48.26391602 C1.75722914 50.04855314 0.87604033 51.840404 -0.00390625 53.6328125 C-1.75 56.0625 -1.75 56.0625 -4.03125 56.8684082 C-7.46728342 57.11370693 -9.00486885 56.27424742 -11.99609375 54.59765625 C-12.99253906 54.04811279 -13.98898437 53.49856934 -15.015625 52.93237305 C-16.06234375 52.33593994 -17.1090625 51.73950684 -18.1875 51.125 C-19.25613281 50.53050049 -20.32476562 49.93600098 -21.42578125 49.32348633 C-24.54252276 47.58470492 -27.64768113 45.82685685 -30.75 44.0625 C-32.31372422 43.17954958 -33.87751619 42.29671914 -35.44140625 41.4140625 C-38.5554479 39.64927355 -41.65741382 37.86469371 -44.75 36.0625 C-43.16649186 31.70526518 -39.77060993 29.23958451 -36.3125 26.375 C-35.68287354 25.84463135 -35.05324707 25.3142627 -34.40454102 24.76782227 C-29.82367879 20.92017643 -25.20942605 17.11159399 -20.53125 13.3828125 C-18.43906509 11.6373661 -16.48826631 9.87831426 -14.53125 7.9921875 C-5.14804819 -0.89151259 -5.14804819 -0.89151259 0 0 Z " fill="#EEF4FD" transform="translate(308.75,221.9375)"/>
<path d="M0 0 C2.0703125 1.62890625 2.0703125 1.62890625 4.125 3.5625 C9.24698098 8.26047593 14.60035196 12.62673134 20 17 C23.67422659 19.99087987 27.34058407 22.99102121 31 26 C31.74121094 26.60328125 32.48242188 27.2065625 33.24609375 27.828125 C34.86920533 29.17364204 36.44155615 30.58008449 38 32 C38 32.66 38 33.32 38 34 C37.34628418 34.35191406 36.69256836 34.70382812 36.01904297 35.06640625 C32.97004642 36.70912217 29.9224503 38.35441742 26.875 40 C25.23277466 40.88498169 25.23277466 40.88498169 23.55737305 41.7878418 C18.82379435 44.34756357 14.09841378 46.9069523 9.46484375 49.64453125 C8.83271973 50.01771484 8.2005957 50.39089844 7.54931641 50.77539062 C5.92929948 51.74275524 4.31780732 52.72435654 2.70703125 53.70703125 C-0.18947093 55.09049766 -1.85084118 55.10918315 -5 55 C-8.23918048 48.66467765 -11.47808472 42.32921412 -14.71679688 35.99365234 C-15.81862122 33.83834635 -16.92050882 31.6830727 -18.02246094 29.52783203 C-19.60628622 26.43009807 -21.18988407 23.33224794 -22.7734375 20.234375 C-23.26621185 19.27070007 -23.75898621 18.30702515 -24.26669312 17.31414795 C-24.95718246 15.96320038 -24.95718246 15.96320038 -25.66162109 14.58496094 C-26.26784805 13.39915436 -26.26784805 13.39915436 -26.88632202 12.18939209 C-27.93347579 10.13078069 -28.96987306 8.06717564 -30 6 C-25.94623024 4.59826672 -21.88097521 3.23339999 -17.8125 1.875 C-16.66201172 1.47667969 -15.51152344 1.07835937 -14.32617188 0.66796875 C-13.21435547 0.30058594 -12.10253906 -0.06679687 -10.95703125 -0.4453125 C-9.93585205 -0.79094238 -8.91467285 -1.13657227 -7.86254883 -1.49267578 C-4.48908683 -2.09054819 -2.99068571 -1.58867037 0 0 Z " fill="#EEF4FD" transform="translate(224,224)"/>
<path d="M0 0 C0.80610718 -0.00524185 1.61221436 -0.0104837 2.44274902 -0.0158844 C4.14394989 -0.02229653 5.84519514 -0.02097804 7.54638672 -0.01245117 C10.14761274 -0.00393453 12.74664674 -0.0327215 15.34765625 -0.06445312 C17.00260351 -0.06606514 18.65755465 -0.0654876 20.3125 -0.0625 C21.08863647 -0.07373398 21.86477295 -0.08496796 22.66442871 -0.09654236 C26.20874656 -0.05084262 28.2595831 0.13885903 31.14257812 2.28100586 C32.65625 4.43359375 32.65625 4.43359375 33.21875 7.37109375 C32.65625 10.43359375 32.65625 10.43359375 30.78125 13.30859375 C27.36787245 15.62969048 26.42012541 15.67584722 22.4609375 15.56640625 C21.11104736 15.53764404 21.11104736 15.53764404 19.73388672 15.50830078 C19.0482666 15.48364746 18.36264648 15.45899414 17.65625 15.43359375 C17.66291183 16.03636642 17.66957367 16.6391391 17.67643738 17.26017761 C17.74284636 23.53806216 17.78807377 29.81584678 17.82104492 36.09399414 C17.83612428 38.43648329 17.85659078 40.77894425 17.88256836 43.12133789 C17.91898821 46.48981692 17.93598513 49.85792239 17.94921875 53.2265625 C17.96470261 54.27257126 17.98018646 55.31858002 17.99613953 56.39628601 C17.99825705 65.56040005 17.99825705 65.56040005 14.65625 69.43359375 C11.730334 70.89655175 9.90007653 70.87882484 6.65625 70.43359375 C3.58946889 67.766608 1.94161732 66.034032 1.22177124 61.99688721 C1.07764844 59.02834729 1.0943032 56.10004975 1.16796875 53.12890625 C1.17858086 51.51023148 1.17858086 51.51023148 1.18940735 49.8588562 C1.21731338 46.42471927 1.28004831 42.99223481 1.34375 39.55859375 C1.36883761 37.22528402 1.39164996 34.89194865 1.41210938 32.55859375 C1.46712756 26.84970013 1.55071684 21.14176502 1.65625 15.43359375 C0.9648291 15.45099609 0.2734082 15.46839844 -0.43896484 15.48632812 C-1.79562256 15.50663086 -1.79562256 15.50663086 -3.1796875 15.52734375 C-4.0773584 15.54474609 -4.9750293 15.56214844 -5.89990234 15.58007812 C-8.34375 15.43359375 -8.34375 15.43359375 -10.96875 13.93359375 C-13.06091742 10.12965298 -12.89264545 7.75614542 -12.34375 3.43359375 C-8.97780115 -0.39881988 -4.74926356 -0.01796349 0 0 Z " fill="#2D5069" transform="translate(452.34375,400.56640625)"/>
<path d="M0 0 C0.88300781 0.53109375 1.76601562 1.0621875 2.67578125 1.609375 C15.12005357 8.97975752 27.55665726 14.40825134 42.25 14.3125 C43.48810425 14.31056641 43.48810425 14.31056641 44.7512207 14.30859375 C51.46270903 14.20383927 57.61883556 13.13979167 64 11 C66.30656996 26.75875532 66.30656996 26.75875532 63.44921875 31.66015625 C61.08392464 33.70615666 58.64403529 35.33106993 56 37 C54.04730757 38.60671202 52.10983553 40.23208875 50.1875 41.875 C47.22936456 44.32517279 44.52020898 46.44093309 41 48 C40.39414062 47.443125 39.78828125 46.88625 39.1640625 46.3125 C34.23285878 41.82131138 29.22664171 37.51000559 23.98828125 33.3828125 C19.2379965 29.59500374 14.56754315 25.71037685 9.88842773 21.83520508 C9.18532471 21.25407959 8.48222168 20.6729541 7.7578125 20.07421875 C7.1302002 19.55432373 6.50258789 19.03442871 5.85595703 18.4987793 C3.98510344 16.9427618 3.98510344 16.9427618 1.78955078 15.51757812 C0 14 0 14 -0.390625 10.64453125 C-0.34421875 9.37996094 -0.2978125 8.11539063 -0.25 6.8125 C-0.21390625 5.54019531 -0.1778125 4.26789063 -0.140625 2.95703125 C-0.09421875 1.98121094 -0.0478125 1.00539062 0 0 Z " fill="#F4A96C" transform="translate(221,209)"/>
<path d="M0 0 C0.33 0.66 0.66 1.32 1 2 C8.26 2 15.52 2 23 2 C25.07436992 7.53165311 26.47114875 11.58255309 27.38671875 17.203125 C27.49345413 17.84820007 27.60018951 18.49327515 27.7101593 19.15789795 C27.93146629 20.50503009 28.1489057 21.85280308 28.36254883 23.20117188 C28.68919106 25.26066222 29.02815472 27.31784059 29.36914062 29.375 C31 39.37375822 31 39.37375822 31 44 C18.46 44 5.92 44 -7 44 C-6.34339281 38.09053529 -5.61389782 32.30574325 -4.58984375 26.46484375 C-4.45808243 25.70071671 -4.32632111 24.93658966 -4.19056702 24.14930725 C-3.77538596 21.74492942 -3.3565135 19.34121257 -2.9375 16.9375 C-2.6527487 15.29236029 -2.36824137 13.64717832 -2.08398438 12.00195312 C-1.3921373 8.00080902 -0.69698238 4.00025262 0 0 Z " fill="#E95367" transform="translate(243,315)"/>
<path d="M0 0 C5.23724692 2.96387807 8.8638854 7.84165621 10.75 13.5 C11.53345685 20.01168238 10.56896138 25.11820211 6.75 30.5 C2.961222 34.5898042 -1.31076412 37.03684768 -6.828125 37.90625 C-13.15929223 38.12839622 -17.30101667 37.22435095 -22.3671875 33.3203125 C-27.23938902 28.60984381 -28.47630756 24.07631793 -28.75 17.375 C-28.51161585 11.25391013 -26.96547003 8.11055415 -22.53125 3.84765625 C-16.01512283 -2.01961927 -8.30181563 -3.6310446 0 0 Z " fill="#9DD2FC" transform="translate(333.25,417.5)"/>
<path d="M0 0 C11.22 0 22.44 0 34 0 C35.80825841 7.23303366 37.53699375 14.28642737 38.82421875 21.59765625 C38.97534622 22.43920761 39.12647369 23.28075897 39.28218079 24.14781189 C39.59577201 25.89921486 39.90738733 27.65097275 40.21704102 29.40307617 C40.69224642 32.08933071 41.17478062 34.77419767 41.65820312 37.45898438 C41.96396895 39.17179878 42.26932288 40.88468677 42.57421875 42.59765625 C42.78977669 43.79757957 42.78977669 43.79757957 43.00968933 45.02174377 C43.54310544 48.05492126 44 50.91364273 44 54 C38.72 54 33.44 54 28 54 C27.75765625 52.54851562 27.5153125 51.09703125 27.265625 49.6015625 C25.18506299 37.30343163 22.81209675 25.15227523 20 13 C12.74 12.67 5.48 12.34 -2 12 C-2 5 -2 5 0 0 Z " fill="#E3384F" transform="translate(246,305)"/>
<path d="M0 0 C0.75821045 0.43650879 1.5164209 0.87301758 2.29760742 1.32275391 C3.13098633 1.80228516 3.96436523 2.28181641 4.82299805 2.77587891 C5.67442383 3.27861328 6.52584961 3.78134766 7.40307617 4.29931641 C8.27383789 4.79431641 9.14459961 5.28931641 10.04174805 5.79931641 C16.46356825 9.54329264 16.46356825 9.54329264 17.59057617 12.92431641 C15.28057617 17.54431641 12.97057617 22.16431641 10.59057617 26.92431641 C-6.73442383 27.41931641 -6.73442383 27.41931641 -24.40942383 27.92431641 C-30.40942383 12.92431641 -30.40942383 12.92431641 -30.40942383 9.92431641 C-26.88276098 7.87641792 -23.33605667 5.86604805 -19.78442383 3.86181641 C-18.78540039 3.28109375 -17.78637695 2.70037109 -16.75708008 2.10205078 C-15.78383789 1.55742187 -14.8105957 1.01279297 -13.80786133 0.45166016 C-12.91760254 -0.05631104 -12.02734375 -0.56428223 -11.11010742 -1.08764648 C-6.95725285 -2.60695605 -3.95718982 -1.76668136 0 0 Z " fill="#EA5367" transform="translate(269.409423828125,278.07568359375)"/>
<path d="M0 0 C1.75265435 0.64804027 3.47839544 1.36954314 5.1875 2.125 C6.64823591 2.64196544 8.11355585 3.14607199 9.58203125 3.640625 C13.80957148 5.0700842 18.0006995 6.58044947 22.1875 8.125 C20.63097945 13.4787465 18.2057491 18.12650947 15.5625 23 C15.14226562 23.78375 14.72203125 24.5675 14.2890625 25.375 C13.2593978 27.29392057 12.22402433 29.20977603 11.1875 31.125 C10.51807373 30.84301758 9.84864746 30.56103516 9.15893555 30.27050781 C6.06543274 28.96927039 2.97023184 27.67211893 -0.125 26.375 C-1.17751953 25.9315625 -2.23003906 25.488125 -3.31445312 25.03125 C-10.08277636 22.19896704 -16.89210028 19.56252527 -23.8125 17.125 C-22.15189444 15.45193211 -20.48465677 13.78647547 -18.8125 12.125 C-18.2963916 11.60695801 -17.7802832 11.08891602 -17.24853516 10.55517578 C-5.52377684 -1.01553973 -5.52377684 -1.01553973 0 0 Z " fill="#D9EDFD" transform="translate(308.8125,221.875)"/>
<path d="M0 0 C0.33 0 0.66 0 1 0 C1.91980461 16.8426445 1.91980461 16.8426445 -2.50390625 22.51953125 C-7.90839976 27.86758096 -12.51526003 29.13512622 -19.859375 29.09765625 C-20.97441406 29.09443359 -22.08945312 29.09121094 -23.23828125 29.08789062 C-24.39714844 29.07951172 -25.55601562 29.07113281 -26.75 29.0625 C-27.92433594 29.05798828 -29.09867187 29.05347656 -30.30859375 29.04882812 C-33.20575095 29.03705106 -36.10288193 29.01911588 -39 29 C-38.67 24.38 -38.34 19.76 -38 15 C-36.288125 14.98582031 -34.57625 14.97164062 -32.8125 14.95703125 C-30.54164032 14.91011266 -28.27080781 14.86186539 -26 14.8125 C-24.31197266 14.80379883 -24.31197266 14.80379883 -22.58984375 14.79492188 C-15.53266293 14.60920659 -10.37431683 13.8104035 -5 9 C-2.6403153 5.9747632 -1.20790104 3.62370313 0 0 Z " fill="#85BEEF" transform="translate(385,105)"/>
<path d="M0 0 C2 3 2 3 3.625 5.875 C7.18560013 10.56000017 10.98964964 13.48721182 16.90087891 14.49414062 C20.10822391 14.7122661 23.28544156 14.79519675 26.5 14.8125 C27.60859375 14.83763672 28.7171875 14.86277344 29.859375 14.88867188 C32.57254037 14.94714527 35.28630607 14.97653252 38 15 C38.495 21.93 38.495 21.93 39 29 C34.83223244 29.13551267 30.66891249 29.23438868 26.5 29.3125 C25.32695312 29.35439453 24.15390625 29.39628906 22.9453125 29.43945312 C15.64172942 29.54203154 10.55501259 28.98083321 5 24 C0.11078222 18.92545745 -0.37824187 14.31100682 -0.3125 7.5 C-0.24847784 4.99513282 -0.13666454 2.50247959 0 0 Z " fill="#86BEEF" transform="translate(141,105)"/>
<path d="M0 0 C1.16257324 0.01047363 2.32514648 0.02094727 3.52294922 0.03173828 C5.40820312 0.04140625 5.40820312 0.04140625 7.33154297 0.05126953 C9.30960937 0.07640625 9.30960937 0.07640625 11.32763672 0.10205078 C12.66747393 0.11208096 14.00731823 0.12120674 15.34716797 0.12939453 C18.63250244 0.15303003 21.91748137 0.18597844 25.20263672 0.22705078 C9.72024523 12.6709612 -6.08443011 17.32698758 -25.79296875 16.54931641 C-28.09041757 16.17993365 -29.77633773 15.35796387 -31.79736328 14.22705078 C-31.10513672 14.03111328 -30.41291016 13.83517578 -29.69970703 13.63330078 C-23.33421212 11.68758956 -17.52225653 9.239392 -11.67236328 6.10205078 C-11.02130615 5.75335938 -10.37024902 5.40466797 -9.69946289 5.04541016 C-0.5917636 0.04803108 -0.5917636 0.04803108 0 0 Z " fill="#F5A96C" transform="translate(280.79736328125,190.77294921875)"/>
<path d="M0 0 C8.96624473 -0.35864979 8.96624473 -0.35864979 13.0625 1.0625 C15 3 15 3 16.0625 6.375 C15.98768176 10.71445815 15.06407081 12.02347407 12 15 C9.47524538 16.26237731 7.68799534 16.09856404 4.875 16.0625 C3.26625 16.041875 1.6575 16.02125 0 16 C0 10.72 0 5.44 0 0 Z " fill="#97CBF4" transform="translate(244,416)"/>
<path d="M0 0 C9.03614458 -0.48192771 9.03614458 -0.48192771 13.125 1.5625 C15 4 15 4 15.5625 7.5 C15 11 15 11 13.6875 13.4375 C9.27648594 16.00204306 5.03163219 15.23960153 0 15 C0 10.05 0 5.1 0 0 Z " fill="#9ED2FC" transform="translate(182,416)"/>
<path d="M0 0 C8.1201995 -0.48478803 8.1201995 -0.48478803 12.0625 1.6875 C14 4 14 4 14.625 6.5 C14 9 14 9 12.0625 11.3125 C7.79513443 13.66390552 4.83137516 13.28844031 0 13 C0 8.71 0 4.42 0 0 Z " fill="#9ED2FC" transform="translate(394,416)"/>
</svg>
